<svg xmlns="http://www.w3.org/2000/svg"  viewBox="0 0 64 64" width="512px" height="512px"><radialGradient id="QDl6tuL~EDiLXum7ga5hZa" cx="32" cy="31.5" r="31.259" gradientUnits="userSpaceOnUse"><stop offset="0" stop-color="#efdcb1"/><stop offset="0" stop-color="#f2e0bb"/><stop offset=".011" stop-color="#f2e0bc"/><stop offset=".362" stop-color="#f9edd2"/><stop offset=".699" stop-color="#fef4df"/><stop offset="1" stop-color="#fff7e4"/></radialGradient><path fill="url(#QDl6tuL~EDiLXum7ga5hZa)" d="M60,50l0.385,0c1.67,0,3.195-1.122,3.537-2.757C64.392,44.998,62.668,43,60.5,43l-7.358,0	c-1.308,0-2.499-0.941-2.629-2.243C50.363,39.261,51.534,38,53,38l4.869,0c1.451,0,2.789-0.972,3.071-2.395	C61.319,33.693,59.848,32,58,32h-8v-8h11c1.657,0,3-1.343,3-3v0c0-1.657-1.343-3-3-3h-0.894c-0.996,0-1.919-0.681-2.078-1.665	C57.824,15.082,58.785,14,60,14l0.357,0c1.308,0,2.5-0.942,2.63-2.243C63.136,10.26,61.966,9,60.5,9h-16C43.672,9,43,8.328,43,7.5	S43.672,6,44.5,6l3.857,0c1.308,0,2.5-0.942,2.63-2.243C51.136,2.26,49.966,1,48.5,1L15.643,1c-1.308,0-2.5,0.942-2.63,2.243	C12.864,4.74,14.034,6,15.5,6l4.857,0c1.308,0,2.499,0.941,2.63,2.242C23.137,9.739,21.966,11,20.5,11L6.126,11	c-1.457,0-2.804,0.975-3.083,2.405C2.669,15.313,4.14,17,5.984,17l2.844,0c2.089,0,3.955,1.527,4.153,3.607	C13.209,22.993,11.339,25,9,25c-0.086,0-3.81,0-3.81,0c-2.086,0-3.959,1.514-4.169,3.59C0.78,30.972,2.665,33,5,33h9v11l-7.869,0	c-1.451,0-2.789,0.972-3.071,2.395C2.681,48.307,4.152,50,6,50c0.603,0,2,0,3.5,0s2,1.498,2,2c0,1.105-0.895,2-2,2l-5.31,0	c-2.086,0-3.959,1.514-4.169,3.59C-0.22,59.972,1.665,62,4,62l55.811,0c1.899,0,3.857-1.507,4.142-3.385	c0.369-2.435-1.498-4.555-3.852-4.614c-0.808-0.02-1.606-0.396-1.921-1.14C57.564,51.401,58.618,50,60,50z"/><linearGradient id="QDl6tuL~EDiLXum7ga5hZb" x1="27.48" x2="36.512" y1="1140.367" y2="1191.59" gradientTransform="translate(0 -1134)" gradientUnits="userSpaceOnUse"><stop offset="0" stop-color="#a4a4a4"/><stop offset=".619" stop-color="gray"/><stop offset="1" stop-color="#6f6f6f"/><stop offset="1" stop-color="#6f6f6f"/></linearGradient><path fill="url(#QDl6tuL~EDiLXum7ga5hZb)" d="M18,8h28c5.523,0,10,4.477,10,10v28c0,5.523-4.477,10-10,10H18c-5.523,0-10-4.477-10-10V18	C8,12.477,12.477,8,18,8z"/><linearGradient id="QDl6tuL~EDiLXum7ga5hZc" x1="26" x2="26" y1="62.186" y2="83.553" gradientUnits="userSpaceOnUse"><stop offset="0" stop-color="#fd6b53"/><stop offset=".007" stop-color="#fd6b53"/><stop offset=".989" stop-color="#f96599"/><stop offset="1" stop-color="#f96599"/></linearGradient><path fill="url(#QDl6tuL~EDiLXum7ga5hZc)" d="M23,48V16h6v31.5C26,47.5,23,48,23,48z"/><linearGradient id="QDl6tuL~EDiLXum7ga5hZd" x1="14" x2="14" y1="62.186" y2="81.077" gradientTransform="matrix(-1 0 0 1 52 0)" gradientUnits="userSpaceOnUse"><stop offset="0" stop-color="#fd6b53"/><stop offset=".007" stop-color="#fd6b53"/><stop offset=".989" stop-color="#f96599"/><stop offset="1" stop-color="#f96599"/></linearGradient><path fill="url(#QDl6tuL~EDiLXum7ga5hZd)" d="M41,48V16h-6v31.5C38,47.5,41,48,41,48z"/><linearGradient id="QDl6tuL~EDiLXum7ga5hZe" x1="20" x2="20" y1="47.814" y2="-58.714" gradientTransform="matrix(-1 0 0 1 52 0)" gradientUnits="userSpaceOnUse"><stop offset="0" stop-color="#ff8769"/><stop offset=".214" stop-color="#ff887d"/><stop offset=".524" stop-color="#fd8896"/><stop offset=".793" stop-color="#fc89a5"/><stop offset=".989" stop-color="#fc89aa"/><stop offset="1" stop-color="#fc89aa"/></linearGradient><path fill="url(#QDl6tuL~EDiLXum7ga5hZe)" d="M41,48L29,16h-6l12,31.5C38,47.5,41,48,41,48z"/></svg>