<?xml version="1.0" standalone="no"?>
<!DOCTYPE svg PUBLIC "-//W3C//DTD SVG 20010904//EN"
 "http://www.w3.org/TR/2001/REC-SVG-20010904/DTD/svg10.dtd">
<svg version="1.0" xmlns="http://www.w3.org/2000/svg"
 width="1200.000000pt" height="1200.000000pt" viewBox="0 0 1200.000000 1200.000000"
 preserveAspectRatio="xMidYMid meet">

<g transform="translate(0.000000,1200.000000) scale(0.100000,-0.100000)"
fill="#000000" stroke="none">
<path d="M212 11907 l-22 -23 0 -821 c0 -778 1 -822 18 -843 18 -23 19 -23
463 -31 244 -4 464 -12 489 -18 104 -23 161 -52 224 -115 106 -106 150 -220
175 -448 15 -135 15 -6869 1 -7006 -22 -198 -74 -326 -172 -419 -127 -119
-200 -133 -750 -140 -384 -5 -408 -6 -427 -24 -21 -20 -21 -23 -21 -843 0
-796 1 -825 19 -847 l19 -24 2406 0 2405 0 23 23 23 23 3 662 c2 364 0 735 -3
825 -6 145 -9 165 -27 182 -19 17 -48 19 -431 23 -456 4 -552 14 -662 66 -118
56 -200 148 -223 251 -35 162 -36 178 -39 3190 l-3 2965 184 -360 c101 -198
1028 -2036 2060 -4085 1033 -2049 1886 -3734 1897 -3745 19 -20 35 -20 1223
-23 l1204 -3 29 25 28 24 6 4664 c5 4318 6 4670 22 4757 41 229 158 343 412
398 54 12 160 16 470 20 240 2 411 8 426 14 15 6 31 22 38 35 8 18 11 252 11
825 0 848 0 845 -45 863 -9 3 -1091 6 -2404 6 l-2388 0 -21 -23 -22 -23 0
-821 c0 -776 1 -822 18 -843 18 -22 20 -22 463 -31 478 -8 545 -15 645 -64 97
-47 192 -183 219 -312 31 -150 35 -375 35 -2348 l0 -1980 -138 270 c-76 149
-799 1586 -1607 3194 -808 1608 -1480 2937 -1493 2953 l-24 28 -2357 0 -2358
0 -21 -23z"/>
</g>
</svg>
